<svg id="visual" viewBox="0 0 960 300" width="960" height="300" xmlns="http://www.w3.org/2000/svg" xmlns:xlink="http://www.w3.org/1999/xlink" version="1.1"><rect x="0" y="0" width="960" height="300" fill="#202731"></rect><path d="M0 180L17.8 174.2C35.7 168.3 71.3 156.7 106.8 156.7C142.3 156.7 177.7 168.3 213.2 166.3C248.7 164.3 284.3 148.7 320 149.8C355.7 151 391.3 169 426.8 170.8C462.3 172.7 497.7 158.3 533.2 159.5C568.7 160.7 604.3 177.3 640 173.3C675.7 169.3 711.3 144.7 746.8 144.2C782.3 143.7 817.7 167.3 853.2 175.2C888.7 183 924.3 175 942.2 171L960 167L960 0L942.2 0C924.3 0 888.7 0 853.2 0C817.7 0 782.3 0 746.8 0C711.3 0 675.7 0 640 0C604.3 0 568.7 0 533.2 0C497.7 0 462.3 0 426.8 0C391.3 0 355.7 0 320 0C284.3 0 248.7 0 213.2 0C177.7 0 142.3 0 106.8 0C71.3 0 35.7 0 17.8 0L0 0Z" fill="#f374a7"></path><path d="M0 112L17.8 114.2C35.7 116.3 71.3 120.7 106.8 127C142.3 133.3 177.7 141.7 213.2 138.3C248.7 135 284.3 120 320 118.7C355.7 117.3 391.3 129.7 426.8 136.8C462.3 144 497.7 146 533.2 142.3C568.7 138.7 604.3 129.3 640 123.7C675.7 118 711.3 116 746.8 115.7C782.3 115.3 817.7 116.7 853.2 119.2C888.7 121.7 924.3 125.3 942.2 127.2L960 129L960 0L942.2 0C924.3 0 888.7 0 853.2 0C817.7 0 782.3 0 746.8 0C711.3 0 675.7 0 640 0C604.3 0 568.7 0 533.2 0C497.7 0 462.3 0 426.8 0C391.3 0 355.7 0 320 0C284.3 0 248.7 0 213.2 0C177.7 0 142.3 0 106.8 0C71.3 0 35.7 0 17.8 0L0 0Z" fill="#f95c94"></path><path d="M0 84L17.8 84.3C35.7 84.7 71.3 85.3 106.8 89.2C142.3 93 177.7 100 213.2 104.3C248.7 108.7 284.3 110.3 320 106.8C355.7 103.3 391.3 94.7 426.8 85C462.3 75.3 497.7 64.7 533.2 60.2C568.7 55.7 604.3 57.3 640 60.5C675.7 63.7 711.3 68.3 746.8 70.7C782.3 73 817.7 73 853.2 78.8C888.7 84.7 924.3 96.3 942.2 102.2L960 108L960 0L942.2 0C924.3 0 888.7 0 853.2 0C817.7 0 782.3 0 746.8 0C711.3 0 675.7 0 640 0C604.3 0 568.7 0 533.2 0C497.7 0 462.3 0 426.8 0C391.3 0 355.7 0 320 0C284.3 0 248.7 0 213.2 0C177.7 0 142.3 0 106.8 0C71.3 0 35.7 0 17.8 0L0 0Z" fill="#fd3e7f"></path><path d="M0 49L17.8 48.8C35.7 48.7 71.3 48.3 106.8 49.7C142.3 51 177.7 54 213.2 55C248.7 56 284.3 55 320 49.7C355.7 44.3 391.3 34.7 426.8 34.7C462.3 34.7 497.7 44.3 533.2 50.7C568.7 57 604.3 60 640 61.2C675.7 62.3 711.3 61.7 746.8 55.2C782.3 48.7 817.7 36.3 853.2 33C888.7 29.7 924.3 35.3 942.2 38.2L960 41L960 0L942.2 0C924.3 0 888.7 0 853.2 0C817.7 0 782.3 0 746.8 0C711.3 0 675.7 0 640 0C604.3 0 568.7 0 533.2 0C497.7 0 462.3 0 426.8 0C391.3 0 355.7 0 320 0C284.3 0 248.7 0 213.2 0C177.7 0 142.3 0 106.8 0C71.3 0 35.7 0 17.8 0L0 0Z" fill="#ff0066"></path></svg>