<svg id="visual" viewBox="0 0 960 300" width="960" height="300" xmlns="http://www.w3.org/2000/svg" xmlns:xlink="http://www.w3.org/1999/xlink" version="1.1"><rect x="0" y="0" width="960" height="300" fill="#202731"></rect><path d="M0 159L17.8 164.2C35.7 169.3 71.3 179.7 106.8 177.8C142.3 176 177.7 162 213.2 152.2C248.7 142.3 284.3 136.7 320 144.2C355.7 151.7 391.3 172.3 426.8 178C462.3 183.7 497.7 174.3 533.2 161.7C568.7 149 604.3 133 640 137C675.7 141 711.3 165 746.8 168.3C782.3 171.7 817.7 154.3 853.2 151.3C888.7 148.3 924.3 159.7 942.2 165.3L960 171L960 0L942.2 0C924.3 0 888.7 0 853.2 0C817.7 0 782.3 0 746.8 0C711.3 0 675.7 0 640 0C604.3 0 568.7 0 533.2 0C497.7 0 462.3 0 426.8 0C391.3 0 355.7 0 320 0C284.3 0 248.7 0 213.2 0C177.7 0 142.3 0 106.8 0C71.3 0 35.7 0 17.8 0L0 0Z" fill="#f96055"></path><path d="M0 111L17.8 111.2C35.7 111.3 71.3 111.7 106.8 109C142.3 106.3 177.7 100.7 213.2 105C248.7 109.3 284.3 123.7 320 128.7C355.7 133.7 391.3 129.3 426.8 123C462.3 116.7 497.7 108.3 533.2 107.7C568.7 107 604.3 114 640 122C675.7 130 711.3 139 746.8 139.2C782.3 139.3 817.7 130.7 853.2 127.3C888.7 124 924.3 126 942.2 127L960 128L960 0L942.2 0C924.3 0 888.7 0 853.2 0C817.7 0 782.3 0 746.8 0C711.3 0 675.7 0 640 0C604.3 0 568.7 0 533.2 0C497.7 0 462.3 0 426.8 0C391.3 0 355.7 0 320 0C284.3 0 248.7 0 213.2 0C177.7 0 142.3 0 106.8 0C71.3 0 35.7 0 17.8 0L0 0Z" fill="#fd4c3f"></path><path d="M0 105L17.8 96.7C35.7 88.3 71.3 71.7 106.8 67.7C142.3 63.7 177.7 72.3 213.2 72.8C248.7 73.3 284.3 65.7 320 64.7C355.7 63.7 391.3 69.3 426.8 72.7C462.3 76 497.7 77 533.2 78.5C568.7 80 604.3 82 640 84.2C675.7 86.3 711.3 88.7 746.8 92.2C782.3 95.7 817.7 100.3 853.2 101.5C888.7 102.7 924.3 100.3 942.2 99.2L960 98L960 0L942.2 0C924.3 0 888.7 0 853.2 0C817.7 0 782.3 0 746.8 0C711.3 0 675.7 0 640 0C604.3 0 568.7 0 533.2 0C497.7 0 462.3 0 426.8 0C391.3 0 355.7 0 320 0C284.3 0 248.7 0 213.2 0C177.7 0 142.3 0 106.8 0C71.3 0 35.7 0 17.8 0L0 0Z" fill="#ff3326"></path><path d="M0 52L17.8 48.8C35.7 45.7 71.3 39.3 106.8 41.2C142.3 43 177.7 53 213.2 57C248.7 61 284.3 59 320 56.7C355.7 54.3 391.3 51.7 426.8 46.8C462.3 42 497.7 35 533.2 34.8C568.7 34.7 604.3 41.3 640 46.3C675.7 51.3 711.3 54.7 746.8 58.3C782.3 62 817.7 66 853.2 61.7C888.7 57.3 924.3 44.7 942.2 38.3L960 32L960 0L942.2 0C924.3 0 888.7 0 853.2 0C817.7 0 782.3 0 746.8 0C711.3 0 675.7 0 640 0C604.3 0 568.7 0 533.2 0C497.7 0 462.3 0 426.8 0C391.3 0 355.7 0 320 0C284.3 0 248.7 0 213.2 0C177.7 0 142.3 0 106.8 0C71.3 0 35.7 0 17.8 0L0 0Z" fill="#ff0000"></path></svg>