<svg id="visual" viewBox="0 0 960 300" width="960" height="300" xmlns="http://www.w3.org/2000/svg" xmlns:xlink="http://www.w3.org/1999/xlink" version="1.1"><rect x="0" y="0" width="960" height="300" fill="#202731"></rect><path d="M0 99L17.8 102.2C35.7 105.3 71.3 111.7 106.8 110.5C142.3 109.3 177.7 100.7 213.2 94.7C248.7 88.7 284.3 85.3 320 90C355.7 94.7 391.3 107.3 426.8 110.8C462.3 114.3 497.7 108.7 533.2 100.8C568.7 93 604.3 83 640 85.3C675.7 87.7 711.3 102.3 746.8 104.3C782.3 106.3 817.7 95.7 853.2 94C888.7 92.3 924.3 99.7 942.2 103.3L960 107L960 0L942.2 0C924.3 0 888.7 0 853.2 0C817.7 0 782.3 0 746.8 0C711.3 0 675.7 0 640 0C604.3 0 568.7 0 533.2 0C497.7 0 462.3 0 426.8 0C391.3 0 355.7 0 320 0C284.3 0 248.7 0 213.2 0C177.7 0 142.3 0 106.8 0C71.3 0 35.7 0 17.8 0L0 0Z" fill="#f96055"></path><path d="M0 69L17.8 69C35.7 69 71.3 69 106.8 67.3C142.3 65.7 177.7 62.3 213.2 65.2C248.7 68 284.3 77 320 80.2C355.7 83.3 391.3 80.7 426.8 76.7C462.3 72.7 497.7 67.3 533.2 66.8C568.7 66.3 604.3 70.7 640 75.7C675.7 80.7 711.3 86.3 746.8 86.5C782.3 86.7 817.7 81.3 853.2 79.2C888.7 77 924.3 78 942.2 78.5L960 79L960 0L942.2 0C924.3 0 888.7 0 853.2 0C817.7 0 782.3 0 746.8 0C711.3 0 675.7 0 640 0C604.3 0 568.7 0 533.2 0C497.7 0 462.3 0 426.8 0C391.3 0 355.7 0 320 0C284.3 0 248.7 0 213.2 0C177.7 0 142.3 0 106.8 0C71.3 0 35.7 0 17.8 0L0 0Z" fill="#eb4a5c"></path><path d="M0 65L17.8 59.8C35.7 54.7 71.3 44.3 106.8 41.8C142.3 39.3 177.7 44.7 213.2 45C248.7 45.3 284.3 40.7 320 40.2C355.7 39.7 391.3 43.3 426.8 45.3C462.3 47.3 497.7 47.7 533.2 48.5C568.7 49.3 604.3 50.7 640 52.2C675.7 53.7 711.3 55.3 746.8 57.5C782.3 59.7 817.7 62.3 853.2 63C888.7 63.7 924.3 62.3 942.2 61.7L960 61L960 0L942.2 0C924.3 0 888.7 0 853.2 0C817.7 0 782.3 0 746.8 0C711.3 0 675.7 0 640 0C604.3 0 568.7 0 533.2 0C497.7 0 462.3 0 426.8 0C391.3 0 355.7 0 320 0C284.3 0 248.7 0 213.2 0C177.7 0 142.3 0 106.8 0C71.3 0 35.7 0 17.8 0L0 0Z" fill="#da3662"></path><path d="M0 32L17.8 30.2C35.7 28.3 71.3 24.7 106.8 25.8C142.3 27 177.7 33 213.2 35.3C248.7 37.7 284.3 36.3 320 35C355.7 33.7 391.3 32.3 426.8 29.3C462.3 26.3 497.7 21.7 533.2 21.5C568.7 21.3 604.3 25.7 640 28.8C675.7 32 711.3 34 746.8 36.2C782.3 38.3 817.7 40.7 853.2 37.8C888.7 35 924.3 27 942.2 23L960 19L960 0L942.2 0C924.3 0 888.7 0 853.2 0C817.7 0 782.3 0 746.8 0C711.3 0 675.7 0 640 0C604.3 0 568.7 0 533.2 0C497.7 0 462.3 0 426.8 0C391.3 0 355.7 0 320 0C284.3 0 248.7 0 213.2 0C177.7 0 142.3 0 106.8 0C71.3 0 35.7 0 17.8 0L0 0Z" fill="#c62368"></path></svg>