<svg id="visual" viewBox="0 0 960 300" width="960" height="300" xmlns="http://www.w3.org/2000/svg" xmlns:xlink="http://www.w3.org/1999/xlink" version="1.1"><path d="M0 49L8 46.5C16 44 32 39 48 39C64 39 80 44 96 46.5C112 49 128 49 144 47.5C160 46 176 43 192 42C208 41 224 42 240 41C256 40 272 37 288 36.5C304 36 320 38 336 40.5C352 43 368 46 384 47C400 48 416 47 432 45.5C448 44 464 42 480 42.5C496 43 512 46 528 46.5C544 47 560 45 576 43.5C592 42 608 41 624 41.5C640 42 656 44 672 44.5C688 45 704 44 720 42.5C736 41 752 39 768 40C784 41 800 45 816 46.5C832 48 848 47 864 45C880 43 896 40 912 39C928 38 944 39 952 39.5L960 40L960 0L952 0C944 0 928 0 912 0C896 0 880 0 864 0C848 0 832 0 816 0C800 0 784 0 768 0C752 0 736 0 720 0C704 0 688 0 672 0C656 0 640 0 624 0C608 0 592 0 576 0C560 0 544 0 528 0C512 0 496 0 480 0C464 0 448 0 432 0C416 0 400 0 384 0C368 0 352 0 336 0C320 0 304 0 288 0C272 0 256 0 240 0C224 0 208 0 192 0C176 0 160 0 144 0C128 0 112 0 96 0C80 0 64 0 48 0C32 0 16 0 8 0L0 0Z" fill="#ff749e"></path><path d="M0 127L8 128C16 129 32 131 48 132C64 133 80 133 96 134.5C112 136 128 139 144 140C160 141 176 140 192 139C208 138 224 137 240 137C256 137 272 138 288 138C304 138 320 137 336 138.5C352 140 368 144 384 143C400 142 416 136 432 135C448 134 464 138 480 137.5C496 137 512 132 528 129C544 126 560 125 576 127C592 129 608 134 624 135.5C640 137 656 135 672 133.5C688 132 704 131 720 131C736 131 752 132 768 134C784 136 800 139 816 138.5C832 138 848 134 864 132C880 130 896 130 912 131.5C928 133 944 136 952 137.5L960 139L960 38L952 37.5C944 37 928 36 912 37C896 38 880 41 864 43C848 45 832 46 816 44.5C800 43 784 39 768 38C752 37 736 39 720 40.5C704 42 688 43 672 42.5C656 42 640 40 624 39.5C608 39 592 40 576 41.5C560 43 544 45 528 44.5C512 44 496 41 480 40.5C464 40 448 42 432 43.5C416 45 400 46 384 45C368 44 352 41 336 38.5C320 36 304 34 288 34.5C272 35 256 38 240 39C224 40 208 39 192 40C176 41 160 44 144 45.5C128 47 112 47 96 44.5C80 42 64 37 48 37C32 37 16 42 8 44.5L0 47Z" fill="#ff4e83"></path><path d="M0 223L8 220.5C16 218 32 213 48 210.5C64 208 80 208 96 210C112 212 128 216 144 217.5C160 219 176 218 192 215C208 212 224 207 240 206C256 205 272 208 288 209C304 210 320 209 336 209C352 209 368 210 384 213C400 216 416 221 432 222C448 223 464 220 480 218C496 216 512 215 528 216C544 217 560 220 576 218.5C592 217 608 211 624 210C640 209 656 213 672 212.5C688 212 704 207 720 204.5C736 202 752 202 768 203C784 204 800 206 816 207C832 208 848 208 864 207.5C880 207 896 206 912 208C928 210 944 215 952 217.5L960 220L960 137L952 135.5C944 134 928 131 912 129.5C896 128 880 128 864 130C848 132 832 136 816 136.5C800 137 784 134 768 132C752 130 736 129 720 129C704 129 688 130 672 131.5C656 133 640 135 624 133.5C608 132 592 127 576 125C560 123 544 124 528 127C512 130 496 135 480 135.5C464 136 448 132 432 133C416 134 400 140 384 141C368 142 352 138 336 136.5C320 135 304 136 288 136C272 136 256 135 240 135C224 135 208 136 192 137C176 138 160 139 144 138C128 137 112 134 96 132.5C80 131 64 131 48 130C32 129 16 127 8 126L0 125Z" fill="#ff0066"></path><path d="M0 268L8 267C16 266 32 264 48 264.5C64 265 80 268 96 268.5C112 269 128 267 144 267C160 267 176 269 192 268.5C208 268 224 265 240 263C256 261 272 260 288 261.5C304 263 320 267 336 268.5C352 270 368 269 384 268.5C400 268 416 268 432 268C448 268 464 268 480 268.5C496 269 512 270 528 269.5C544 269 560 267 576 266.5C592 266 608 267 624 267.5C640 268 656 268 672 267C688 266 704 264 720 264C736 264 752 266 768 267.5C784 269 800 270 816 268.5C832 267 848 263 864 263C880 263 896 267 912 269C928 271 944 271 952 271L960 271L960 218L952 215.5C944 213 928 208 912 206C896 204 880 205 864 205.5C848 206 832 206 816 205C800 204 784 202 768 201C752 200 736 200 720 202.5C704 205 688 210 672 210.5C656 211 640 207 624 208C608 209 592 215 576 216.5C560 218 544 215 528 214C512 213 496 214 480 216C464 218 448 221 432 220C416 219 400 214 384 211C368 208 352 207 336 207C320 207 304 208 288 207C272 206 256 203 240 204C224 205 208 210 192 213C176 216 160 217 144 215.5C128 214 112 210 96 208C80 206 64 206 48 208.5C32 211 16 216 8 218.5L0 221Z" fill="#dd005a"></path><path d="M0 301L8 301C16 301 32 301 48 301C64 301 80 301 96 301C112 301 128 301 144 301C160 301 176 301 192 301C208 301 224 301 240 301C256 301 272 301 288 301C304 301 320 301 336 301C352 301 368 301 384 301C400 301 416 301 432 301C448 301 464 301 480 301C496 301 512 301 528 301C544 301 560 301 576 301C592 301 608 301 624 301C640 301 656 301 672 301C688 301 704 301 720 301C736 301 752 301 768 301C784 301 800 301 816 301C832 301 848 301 864 301C880 301 896 301 912 301C928 301 944 301 952 301L960 301L960 269L952 269C944 269 928 269 912 267C896 265 880 261 864 261C848 261 832 265 816 266.5C800 268 784 267 768 265.5C752 264 736 262 720 262C704 262 688 264 672 265C656 266 640 266 624 265.5C608 265 592 264 576 264.5C560 265 544 267 528 267.5C512 268 496 267 480 266.5C464 266 448 266 432 266C416 266 400 266 384 266.5C368 267 352 268 336 266.5C320 265 304 261 288 259.5C272 258 256 259 240 261C224 263 208 266 192 266.5C176 267 160 265 144 265C128 265 112 267 96 266.5C80 266 64 263 48 262.5C32 262 16 264 8 265L0 266Z" fill="#bb004d"></path></svg>